<svg width="22" height="22" viewBox="0 0 22 22" fill="none" xmlns="http://www.w3.org/2000/svg">
<path d="M5.9707 12.5896C5.9707 13.0646 6.35513 13.449 6.83008 13.449H15.1231C15.5975 13.449 15.9825 13.064 15.9825 12.5896C15.9825 12.1152 15.5975 11.7302 15.1231 11.7302H6.83008C6.35513 11.7302 5.9707 12.1147 5.9707 12.5896Z" fill="#31456A"/>
<path d="M19.7194 12.736L19.4352 10.709C19.3693 10.2392 18.935 9.91095 18.4647 9.97741C17.9949 10.0433 17.6672 10.4776 17.733 10.9479L18.1186 13.698C18.1782 14.1225 18.5414 14.4382 18.9694 14.4382H19.422C19.8958 14.4382 20.2814 14.8237 20.2814 15.2976C20.2814 15.7714 19.8958 16.1569 19.422 16.1569H2.57814C2.10434 16.1569 1.71876 15.7714 1.71876 15.2976C1.71876 14.8237 2.10434 14.4382 2.57814 14.4382H3.03075C3.45929 14.4382 3.82253 14.1225 3.88154 13.698L4.8068 7.09734C5.05602 5.31899 6.03629 3.74404 7.49667 2.77523C8.53766 2.08428 9.75397 1.71876 11.086 1.71876C11.9225 1.73595 12.7475 1.90095 13.4476 2.20574C13.8824 2.39538 14.3889 2.19658 14.5791 1.76116C14.7687 1.32631 14.5699 0.819849 14.1345 0.630213C13.2282 0.23547 12.2467 0 11.0866 0C9.49673 0 7.87078 0.464639 6.54676 1.34293C4.67732 2.5833 3.42263 4.59368 3.10523 6.85843L2.2808 12.736C0.998601 12.8838 0 13.9758 0 15.297C0 16.7184 1.15673 17.8751 2.57814 17.8751H19.422C20.8434 17.8751 22.0002 16.7184 22.0002 15.297C22.0002 13.9758 21.0015 12.8838 19.7194 12.736Z" fill="#31456A"/>
<path fill-rule="evenodd" clip-rule="evenodd" d="M8.47852 19.7357C8.62863 21.0265 9.72921 21.9999 11.0389 21.9999C12.3486 21.9999 13.4492 21.0265 13.5993 19.7357C13.6543 19.2642 13.3163 18.838 12.8448 18.783C12.3738 18.728 11.947 19.0654 11.892 19.5369C11.8427 19.9609 11.476 20.2806 11.0389 20.2806C10.6018 20.2806 10.2351 19.9609 10.1858 19.5369C10.1308 19.066 9.70457 18.728 9.23306 18.783C8.76154 18.8374 8.42352 19.2642 8.47852 19.7357Z" fill="#31456A"/>
<path d="M20.3353 4.29657C20.3353 5.75236 19.1557 6.932 17.6999 6.932C16.2441 6.932 15.0645 5.75236 15.0645 4.29657C15.0645 2.84078 16.2441 1.66113 17.6999 1.66113C19.1557 1.66113 20.3353 2.84078 20.3353 4.29657Z"/>
</svg>
