<svg width="17" height="15" viewBox="0 0 17 15" fill="none" xmlns="http://www.w3.org/2000/svg">
<path d="M9.25649 1.75824H7.2273C6.87186 1.75824 6.58339 2.04671 6.58339 2.40215C6.58339 2.75759 6.87186 3.04607 7.2273 3.04607H9.25649C9.61193 3.04607 9.90041 2.75759 9.90041 2.40215C9.90041 2.04628 9.61236 1.75824 9.25649 1.75824ZM12.6207 2.47341C12.6207 2.77949 12.8397 3.03662 13.1393 3.09844C14.3117 3.33883 15.1964 4.37897 15.1964 5.62173V11.5457C15.1964 12.6125 14.3314 13.4775 13.2647 13.4775H3.21958C2.15282 13.4775 1.28783 12.6125 1.28783 11.5457V5.62173C1.28783 5.53287 1.29255 5.44529 1.30114 5.35858C1.33634 5.01258 1.44022 4.68676 1.59906 4.39485C1.63855 4.32188 1.68191 4.25105 1.72827 4.18236C1.79781 4.07976 1.87465 3.98189 1.9575 3.89045C2.29019 3.52428 2.72677 3.25427 3.22043 3.12677C3.24619 3.12033 3.28525 3.1126 3.33162 3.10531C3.63898 3.05594 3.86349 2.78893 3.86349 2.4777C3.86349 2.09007 3.52007 1.79258 3.1363 1.8471C2.99077 1.8677 2.86456 1.88874 2.80704 1.90505C2.7156 1.93123 2.62503 1.96043 2.5366 1.99305C2.41812 2.03641 2.30264 2.08534 2.19017 2.13986C1.88066 2.28925 1.5939 2.47856 1.33677 2.70179C1.31359 2.72196 1.29041 2.74257 1.26722 2.76317C1.1071 2.9087 0.959004 3.06753 0.82507 3.23795C0.710453 3.38391 0.605709 3.53845 0.512556 3.70028C0.466194 3.78099 0.422408 3.86384 0.381627 3.94841C0.313801 4.08921 0.254132 4.23473 0.203477 4.38412C0.183301 4.44379 0.164413 4.50432 0.146813 4.56528C0.0948702 4.74858 0.055806 4.93703 0.0309079 5.13021C0.0227517 5.1946 0.0158832 5.25942 0.0111612 5.32467C0.00386349 5.42297 0 5.52171 0 5.62173V11.5457C0 13.3238 1.44151 14.7653 3.21958 14.7653H13.2647C15.0427 14.7653 16.4842 13.3238 16.4842 11.5457V5.62173C16.4842 5.52171 16.4804 5.42297 16.4731 5.3251C16.4679 5.25985 16.4615 5.19503 16.4533 5.13063C16.4288 4.93746 16.3898 4.74858 16.3374 4.56571C16.3198 4.50475 16.3014 4.44422 16.2807 4.38455C16.2198 4.20511 16.1464 4.03169 16.061 3.86513C16.0039 3.75394 15.9416 3.64619 15.8747 3.54145C15.8077 3.43714 15.7356 3.33583 15.6592 3.23838C15.6016 3.16541 15.542 3.09457 15.4793 3.02589C15.417 2.95721 15.3522 2.89067 15.2848 2.82671C15.1951 2.74128 15.1015 2.66015 15.0045 2.58374C14.8586 2.46912 14.704 2.36437 14.5422 2.27122C14.4881 2.24031 14.4336 2.21026 14.3778 2.18193C14.3499 2.16777 14.322 2.1536 14.2941 2.14029C14.1816 2.08577 14.0657 2.03684 13.9476 1.99348C13.918 1.98275 13.8884 1.97202 13.8583 1.96214C13.7386 1.92179 13.6167 1.88659 13.4922 1.85783C13.4608 1.85053 13.4299 1.84366 13.3982 1.83722C13.3887 1.83551 13.3677 1.83207 13.3381 1.82864C12.9577 1.77927 12.6207 2.07504 12.6207 2.45839V2.47341Z" fill="#46D0DB"/>
<path d="M4.21709 4.78405C3.77279 4.78405 3.4122 5.14464 3.4122 5.58894C3.4122 6.03324 3.77279 6.39383 4.21709 6.39383C4.66182 6.39383 5.02198 6.03324 5.02198 5.58894C5.02198 5.14464 4.66139 4.78405 4.21709 4.78405Z" fill="#46D0DB"/>
<path d="M8.32317 4.79512C7.87887 4.79512 7.51827 5.15571 7.51827 5.60001C7.51827 6.04431 7.87887 6.40491 8.32317 6.40491C8.76747 6.40491 9.12806 6.04431 9.12806 5.60001C9.12806 5.15571 8.7679 4.79512 8.32317 4.79512Z" fill="#46D0DB"/>
<path d="M12.4606 4.78405C12.0159 4.78405 11.6557 5.14464 11.6557 5.58894C11.6557 6.03324 12.0159 6.39383 12.4606 6.39383C12.9053 6.39383 13.2655 6.03324 13.2655 5.58894C13.2655 5.14464 12.9049 4.78405 12.4606 4.78405Z" fill="#46D0DB"/>
<path d="M4.21709 7.55334C3.77279 7.55334 3.4122 7.91393 3.4122 8.35824C3.4122 8.80254 3.77279 9.16313 4.21709 9.16313C4.66182 9.16313 5.02198 8.80254 5.02198 8.35824C5.02198 7.9135 4.66139 7.55334 4.21709 7.55334Z" fill="#46D0DB"/>
<path d="M4.21702 10.3222C3.74224 10.3222 3.36362 10.733 3.41728 11.2185C3.45806 11.5877 3.7564 11.886 4.12558 11.9268C4.61109 11.9805 5.02191 11.6018 5.02191 11.1271C5.02191 10.6823 4.66132 10.3222 4.21702 10.3222Z" fill="#46D0DB"/>
<path d="M8.32317 7.56372C7.87887 7.56372 7.51827 7.92431 7.51827 8.36862C7.51827 8.81292 7.87887 9.17351 8.32317 9.17351C8.76747 9.17351 9.12806 8.81292 9.12806 8.36862C9.12806 7.92431 8.7679 7.56372 8.32317 7.56372Z" fill="#46D0DB"/>
<path d="M8.32317 10.3326C7.87887 10.3326 7.51827 10.6927 7.51827 11.1374C7.51827 11.5818 7.87887 11.9423 8.32317 11.9423C8.76747 11.9423 9.12806 11.5822 9.12806 11.1374C9.12806 10.6931 8.7679 10.3326 8.32317 10.3326Z" fill="#46D0DB"/>
<path d="M12.4606 7.55334C12.0163 7.55334 11.6557 7.91393 11.6557 8.35824C11.6557 8.80254 12.0163 9.16313 12.4606 9.16313C12.9053 9.16313 13.2655 8.80254 13.2655 8.35824C13.2655 7.9135 12.9049 7.55334 12.4606 7.55334Z" fill="#46D0DB"/>
<path d="M12.4606 10.3222C12.0163 10.3222 11.6557 10.6823 11.6557 11.1271C11.6557 11.5718 12.0163 11.932 12.4606 11.932C12.9053 11.932 13.2655 11.5718 13.2655 11.1271C13.2655 10.6823 12.9049 10.3222 12.4606 10.3222Z" fill="#46D0DB"/>
<path d="M11.2577 4.2639C10.8902 4.2639 10.5923 3.96598 10.5923 3.59852V1.16538C10.5923 0.797918 10.8902 0.5 11.2577 0.5C11.6251 0.5 11.9231 0.797918 11.9231 1.16538V3.59852C11.9231 3.96598 11.6251 4.2639 11.2577 4.2639Z" fill="#46D0DB"/>
<path d="M5.22728 4.26462C4.85982 4.26462 4.5619 3.9667 4.5619 3.59924V1.1661C4.5619 0.79864 4.85982 0.500722 5.22728 0.500722C5.59474 0.500722 5.89266 0.79864 5.89266 1.1661V3.59924C5.89266 3.9667 5.59474 4.26462 5.22728 4.26462Z" fill="#46D0DB"/>
</svg>
