<svg width="25" height="22" viewBox="0 0 25 22" fill="none" xmlns="http://www.w3.org/2000/svg">
<path d="M18.8109 7.51573C18.8109 7.88675 18.5115 8.18484 18.1455 8.18484C17.7794 8.18484 17.48 7.88675 17.48 7.51573C17.48 7.1447 17.7794 6.84662 18.1455 6.84662C18.5115 6.84662 18.8109 7.14471 18.8109 7.51573Z" fill="#31456A" stroke="#31456A"/>
<path d="M12.8192 7.68266C12.8192 8.05368 12.5198 8.35177 12.1538 8.35177C11.7878 8.35177 11.4883 8.05368 11.4883 7.68266C11.4883 7.31164 11.7878 7.01355 12.1538 7.01355C12.5198 7.01355 12.8192 7.31164 12.8192 7.68266Z" fill="#31456A" stroke="#31456A"/>
<path d="M6.65589 7.51573C6.65589 7.88675 6.35648 8.18484 5.99045 8.18484C5.62442 8.18484 5.32501 7.88675 5.32501 7.51573C5.32501 7.1447 5.62442 6.84662 5.99045 6.84662C6.35648 6.84662 6.65589 7.14471 6.65589 7.51573Z" fill="#31456A" stroke="#31456A"/>
<path d="M18.8109 11.6911C18.8109 12.0622 18.5115 12.3603 18.1455 12.3603C17.7794 12.3603 17.48 12.0622 17.48 11.6911C17.48 11.3201 17.7794 11.022 18.1455 11.022C18.5115 11.022 18.8109 11.3201 18.8109 11.6911Z" fill="#31456A" stroke="#31456A"/>
<path d="M18.312 16.5358H18.2502L18.1903 16.5508C18.0614 16.5832 17.895 16.5438 17.7347 16.3963C17.5723 16.247 17.48 16.0409 17.48 15.8667C17.48 15.4733 17.7571 15.1976 18.1455 15.1976C18.301 15.1976 18.4602 15.2743 18.5933 15.4346C18.7286 15.5975 18.8109 15.8191 18.8109 16.0337C18.8109 16.1222 18.7618 16.2521 18.6446 16.3696C18.5273 16.4873 18.3985 16.5358 18.312 16.5358Z" fill="#31456A" stroke="#31456A"/>
<path d="M12.8192 11.6911C12.8192 12.0622 12.5198 12.3603 12.1538 12.3603C11.7878 12.3603 11.4883 12.0622 11.4883 11.6911C11.4883 11.3201 11.7878 11.022 12.1538 11.022C12.5198 11.022 12.8192 11.3201 12.8192 11.6911Z" fill="#31456A" stroke="#31456A"/>
<path d="M12.8192 15.8667C12.8192 16.2377 12.5198 16.5358 12.1538 16.5358C11.7878 16.5358 11.4883 16.2377 11.4883 15.8667C11.4883 15.4957 11.7878 15.1976 12.1538 15.1976C12.5198 15.1976 12.8192 15.4957 12.8192 15.8667Z" fill="#31456A" stroke="#31456A"/>
<path d="M6.65589 11.6911C6.65589 12.0622 6.35648 12.3603 5.99045 12.3603C5.62442 12.3603 5.32501 12.0622 5.32501 11.6911C5.32501 11.3201 5.62442 11.022 5.99045 11.022C6.35648 11.022 6.65589 11.3201 6.65589 11.6911Z" fill="#31456A" stroke="#31456A"/>
<path d="M6.65589 15.8667C6.65589 16.2377 6.35648 16.5358 5.99045 16.5358C5.62442 16.5358 5.32501 16.2377 5.32501 15.8667C5.32501 15.4957 5.62442 15.1976 5.99045 15.1976C6.35648 15.1976 6.65589 15.4957 6.65589 15.8667Z" fill="#31456A" stroke="#31456A"/>
<path d="M4.75417 2.49564L4.78783 2.48931L4.82031 2.47845C4.85935 2.4654 4.92687 2.46519 5.01576 2.54446C5.10941 2.62796 5.1607 2.74758 5.1607 2.83933C5.1607 3.04062 5.12619 3.14419 5.09064 3.20124C5.06332 3.2451 5.00953 3.3039 4.86562 3.3569C2.83365 3.74556 1.3314 5.43352 1.3314 7.51577V15.6995C1.3314 17.9784 3.21869 19.8739 5.49421 19.8739H18.8135C21.089 19.8739 22.9763 17.9784 22.9763 15.6995V7.51577C22.9763 5.43318 21.4736 3.74501 19.4411 3.35671C19.1341 3.24704 19.0107 3.0912 18.9856 2.91326C19.101 2.62504 19.2609 2.51907 19.4392 2.50573C21.85 2.98464 23.6412 5.11091 23.6412 7.51577V15.6995V15.7271L23.6442 15.7546C23.9398 18.4228 21.7227 20.711 18.8135 20.711H5.49421C2.77499 20.711 0.5 18.4311 0.5 15.6995V7.51577C0.5 5.09359 2.31714 2.95402 4.75417 2.49564Z" fill="#31456A" stroke="#31456A"/>
<path d="M13.6508 3.34134H10.6539C10.587 3.34134 10.5153 3.31174 10.4455 3.22182C10.3716 3.12651 10.3215 2.98524 10.3215 2.83925C10.3215 2.75079 10.3706 2.62087 10.4878 2.50331C10.605 2.38565 10.7339 2.33716 10.8204 2.33716H13.8173C13.9038 2.33716 14.0326 2.38565 14.1499 2.50331C14.2671 2.62087 14.3162 2.75079 14.3162 2.83925C14.3162 2.87583 14.2778 2.99866 14.1036 3.1417C13.936 3.27924 13.7531 3.34134 13.6508 3.34134Z" fill="#31456A" stroke="#31456A"/>
<path d="M7.82506 5.01151C7.73849 5.01151 7.60968 4.96302 7.49239 4.84536C7.3752 4.7278 7.32611 4.59788 7.32611 4.50942V1.00209C7.32611 0.857681 7.37468 0.729836 7.45007 0.644752C7.51721 0.568987 7.6283 0.5 7.82506 0.5C7.89202 0.5 7.96373 0.529602 8.03344 0.619523C8.10734 0.714831 8.15751 0.856107 8.15751 1.00209V4.67643C8.15751 4.8138 8.11401 4.88921 8.07448 4.92887C8.03509 4.96838 7.9607 5.01151 7.82506 5.01151Z" fill="#31456A" stroke="#31456A"/>
<path d="M16.6473 5.01151C16.5607 5.01151 16.4319 4.96302 16.3146 4.84536C16.1974 4.7278 16.1483 4.59788 16.1483 4.50942V1.08738C16.2154 0.907515 16.3022 0.751909 16.3971 0.644752C16.5008 0.527789 16.5827 0.5 16.6473 0.5C16.7338 0.5 16.8626 0.548492 16.9799 0.666151C17.0971 0.783713 17.1462 0.91363 17.1462 1.00209V4.67643C17.1462 4.74549 17.1157 4.818 17.0265 4.88765C16.9317 4.96156 16.7917 5.01151 16.6473 5.01151Z" fill="#31456A" stroke="#31456A"/>
</svg>
