<svg width="24" height="24" viewBox="0 0 24 24" fill="none" xmlns="http://www.w3.org/2000/svg">
<path d="M11.6169 11.6184V1" stroke="#31456A" stroke-width="1.9" stroke-linecap="round" stroke-linejoin="round"/>
<path d="M20.8133 6.30914L2.42163 16.9276" stroke="#31456A" stroke-width="1.9" stroke-linecap="round" stroke-linejoin="round"/>
<path d="M1.17707 13.5596C0.717326 11.0716 1.15966 8.50116 2.42463 6.30994C3.6896 4.11872 5.69433 2.45026 8.0788 1.60419V9.57487L1.17707 13.5596Z" stroke="#31456A" stroke-width="1.9" stroke-linecap="round" stroke-linejoin="round"/>
<path d="M11.6169 1C13.4772 1.00034 15.3049 1.48945 16.9167 2.41834C18.5286 3.34723 19.8682 4.6833 20.8012 6.29276C21.7343 7.90221 22.2281 9.72857 22.2333 11.5889C22.2385 13.4493 21.7548 15.2784 20.8307 16.893C19.9066 18.5076 18.5745 19.8511 16.9678 20.7889C15.3611 21.7267 13.5362 22.226 11.6759 22.2367C9.81553 22.2474 7.98504 21.7691 6.36769 20.8498C4.75035 19.9304 3.40291 18.6023 2.46033 16.9984" stroke="#31456A" stroke-width="1.9" stroke-linecap="round" stroke-linejoin="round"/>
</svg>
