<svg width="12" height="16" viewBox="0 0 12 16" fill="none" xmlns="http://www.w3.org/2000/svg">
<path d="M9.57078 14.7936C9.60397 14.7936 9.63405 14.7724 9.64225 14.7438C9.7563 14.3459 9.75591 13.8978 9.75552 13.4234V13.3218C9.75552 12.0289 9.20441 10.8531 8.24358 10.0953C8.17289 10.0396 8.10805 9.97416 8.04673 9.89615L8.04439 9.8934L6.81719 8.55379C6.45082 8.1539 6.45199 7.52819 6.81953 7.12988L8.29631 5.52876C8.34865 5.44251 8.41036 5.36646 8.47989 5.30177C8.87749 4.93168 9.19035 4.48631 9.41025 3.97783C9.63913 3.44857 9.75513 2.87697 9.75513 2.27792C9.75513 2.14776 9.75982 2.02113 9.76411 1.89842C9.77231 1.67574 9.78013 1.46521 9.75864 1.26997C9.75474 1.2343 9.72193 1.20607 9.68365 1.20607H2.09937C2.06109 1.20607 2.02829 1.23391 2.02438 1.26997C2.00329 1.46521 2.01071 1.67574 2.01891 1.89842C2.02321 2.01525 2.0279 2.14737 2.0279 2.27792C2.0279 2.87658 2.1439 3.44857 2.37278 3.97783C2.59267 4.48631 2.90553 4.93168 3.30314 5.30177C3.37266 5.36646 3.43437 5.4429 3.48671 5.52876L4.96349 7.12988C5.33103 7.52859 5.3322 8.1539 4.96584 8.55379L3.73785 9.89458C3.67575 9.97338 3.61092 10.0392 3.53944 10.0953C2.57861 10.8531 2.02751 12.0289 2.02751 13.3222V13.4234C2.02711 13.8974 2.02633 14.3455 2.14077 14.7434C2.14898 14.7724 2.17905 14.7932 2.21225 14.7932L9.57078 14.7936ZM9.57078 15.5H2.21264C1.86737 15.5 1.56076 15.2723 1.46507 14.9394C1.32329 14.4451 1.32368 13.9272 1.32446 13.423V13.3218C1.32446 11.7611 2.01618 10.3991 3.10511 9.54017C3.13792 9.5143 3.16605 9.48293 3.19143 9.45C3.19729 9.44255 3.20354 9.4351 3.20979 9.42805L4.44793 8.07627C4.56784 7.94533 4.56745 7.74068 4.44715 7.61013L2.9442 5.98079C2.92506 5.96001 2.90865 5.93727 2.89537 5.91336C2.87624 5.87886 2.85319 5.84671 2.82468 5.82005C1.89861 4.95834 1.32407 3.70066 1.32407 2.27871C1.32407 2.16188 1.31977 2.04152 1.31548 1.92508C1.30649 1.68515 1.2979 1.44051 1.32446 1.19392C1.36743 0.798735 1.70293 0.500388 2.09898 0.500388H9.68365C10.0797 0.500388 10.4152 0.798343 10.4582 1.19392C10.4851 1.44012 10.4761 1.68515 10.4672 1.92508C10.4629 2.04152 10.4586 2.16148 10.4586 2.27831C10.4586 3.70066 9.88441 4.95794 8.95795 5.81966C8.92905 5.84632 8.9064 5.87847 8.88726 5.91297C8.87398 5.93688 8.85758 5.95962 8.83844 5.9804L7.33549 7.60974C7.21519 7.74029 7.2148 7.94494 7.3347 8.07588L8.57284 9.42765C8.57948 9.4355 8.58612 9.44334 8.59276 9.45118C8.61776 9.48372 8.64549 9.5143 8.67791 9.53978C9.76724 10.3988 10.4586 11.7607 10.4586 13.3214V13.4226C10.459 13.9268 10.4597 14.4447 10.318 14.939C10.2227 15.2723 9.91605 15.5 9.57078 15.5Z" fill="#46D0DB"/>
<path d="M10.9464 14.7936H0.836288C0.641779 14.7936 0.484375 14.952 0.484375 15.1468C0.484375 15.3417 0.641779 15.5 0.836288 15.5H10.9468C11.1413 15.5 11.2988 15.3421 11.2988 15.1468C11.2988 14.9516 11.141 14.7936 10.9464 14.7936Z" fill="#46D0DB"/>
<path d="M10.9464 0.5H0.836288C0.641779 0.5 0.484375 0.657994 0.484375 0.853232C0.484375 1.04847 0.641779 1.20647 0.836288 1.20647H10.9468C11.1413 1.20647 11.2988 1.04847 11.2988 0.853232C11.2988 0.657994 11.141 0.5 10.9464 0.5Z" fill="#46D0DB"/>
<path d="M9.57078 14.7936C9.60397 14.7936 9.63405 14.7724 9.64225 14.7438C9.7563 14.3459 9.75591 13.8978 9.75552 13.4234V13.3218C9.75552 12.0289 9.20441 10.8531 8.24358 10.0953C8.17289 10.0396 8.10805 9.97416 8.04673 9.89615L8.04439 9.8934L6.81719 8.55379C6.45082 8.1539 6.45199 7.52819 6.81953 7.12988L8.29631 5.52876C8.34865 5.44251 8.41036 5.36646 8.47989 5.30177C8.87749 4.93168 9.19035 4.48631 9.41025 3.97783C9.63913 3.44857 9.75513 2.87697 9.75513 2.27792C9.75513 2.14776 9.75982 2.02113 9.76411 1.89842C9.77231 1.67574 9.78013 1.46521 9.75864 1.26997C9.75474 1.2343 9.72193 1.20607 9.68365 1.20607H2.09937C2.06109 1.20607 2.02829 1.23391 2.02438 1.26997C2.00329 1.46521 2.01071 1.67574 2.01891 1.89842C2.02321 2.01525 2.0279 2.14737 2.0279 2.27792C2.0279 2.87658 2.1439 3.44857 2.37278 3.97783C2.59267 4.48631 2.90553 4.93168 3.30314 5.30177C3.37266 5.36646 3.43437 5.4429 3.48671 5.52876L4.96349 7.12988C5.33103 7.52859 5.3322 8.1539 4.96584 8.55379L3.73785 9.89458C3.67575 9.97338 3.61092 10.0392 3.53944 10.0953C2.57861 10.8531 2.02751 12.0289 2.02751 13.3222V13.4234C2.02711 13.8974 2.02633 14.3455 2.14077 14.7434C2.14898 14.7724 2.17905 14.7932 2.21225 14.7932L9.57078 14.7936ZM9.57078 15.5H2.21264C1.86737 15.5 1.56076 15.2723 1.46507 14.9394C1.32329 14.4451 1.32368 13.9272 1.32446 13.423V13.3218C1.32446 11.7611 2.01618 10.3991 3.10511 9.54017C3.13792 9.5143 3.16605 9.48293 3.19143 9.45C3.19729 9.44255 3.20354 9.4351 3.20979 9.42805L4.44793 8.07627C4.56784 7.94533 4.56745 7.74068 4.44715 7.61013L2.9442 5.98079C2.92506 5.96001 2.90865 5.93727 2.89537 5.91336C2.87624 5.87886 2.85319 5.84671 2.82468 5.82005C1.89861 4.95834 1.32407 3.70066 1.32407 2.27871C1.32407 2.16188 1.31977 2.04152 1.31548 1.92508C1.30649 1.68515 1.2979 1.44051 1.32446 1.19392C1.36743 0.798735 1.70293 0.500388 2.09898 0.500388H9.68365C10.0797 0.500388 10.4152 0.798343 10.4582 1.19392C10.4851 1.44012 10.4761 1.68515 10.4672 1.92508C10.4629 2.04152 10.4586 2.16148 10.4586 2.27831C10.4586 3.70066 9.88441 4.95794 8.95795 5.81966C8.92905 5.84632 8.9064 5.87847 8.88726 5.91297C8.87398 5.93688 8.85758 5.95962 8.83844 5.9804L7.33549 7.60974C7.21519 7.74029 7.2148 7.94494 7.3347 8.07588L8.57284 9.42765C8.57948 9.4355 8.58612 9.44334 8.59276 9.45118C8.61776 9.48372 8.64549 9.5143 8.67791 9.53978C9.76724 10.3988 10.4586 11.7607 10.4586 13.3214V13.4226C10.459 13.9268 10.4597 14.4447 10.318 14.939C10.2227 15.2723 9.91605 15.5 9.57078 15.5Z" stroke="#46D0DB" stroke-width="0.6"/>
<path d="M10.9464 14.7936H0.836288C0.641779 14.7936 0.484375 14.952 0.484375 15.1468C0.484375 15.3417 0.641779 15.5 0.836288 15.5H10.9468C11.1413 15.5 11.2988 15.3421 11.2988 15.1468C11.2988 14.9516 11.141 14.7936 10.9464 14.7936Z" stroke="#46D0DB" stroke-width="0.6"/>
<path d="M10.9464 0.5H0.836288C0.641779 0.5 0.484375 0.657994 0.484375 0.853232C0.484375 1.04847 0.641779 1.20647 0.836288 1.20647H10.9468C11.1413 1.20647 11.2988 1.04847 11.2988 0.853232C11.2988 0.657994 11.141 0.5 10.9464 0.5Z" stroke="#46D0DB" stroke-width="0.6"/>
</svg>
