<svg width="17" height="20" viewBox="0 0 17 20" fill="none" xmlns="http://www.w3.org/2000/svg">
<path d="M12.7783 18.7629H4.38921C3.39987 18.7629 2.59513 17.9533 2.59513 16.9579V15.3902C2.59513 15.1868 2.43103 15.0217 2.22884 15.0217C2.02665 15.0217 1.86255 15.1868 1.86255 15.3902V16.9579C1.86255 18.3598 2.99585 19.4999 4.38921 19.4999H12.778C12.9802 19.4999 13.1443 19.3348 13.1443 19.1314C13.1443 18.928 12.9805 18.7629 12.7783 18.7629Z" fill="#46D0DB"/>
<path d="M16.7387 14.9134C16.5984 14.7667 16.3665 14.762 16.2207 14.9031L15.3046 15.789V4.67971C15.3046 4.67824 15.3043 4.67677 15.3043 4.67529C15.3043 4.66313 15.3035 4.65134 15.3024 4.63918C15.301 4.62738 15.2991 4.61522 15.2966 4.60343C15.2958 4.60048 15.2951 4.59717 15.2944 4.59422C15.2922 4.58427 15.2893 4.57432 15.2863 4.56474C15.2856 4.56289 15.2852 4.56105 15.2849 4.55958C15.2812 4.54852 15.2764 4.53747 15.2717 4.52678C15.2706 4.5242 15.2691 4.52162 15.268 4.51904C15.2636 4.5102 15.2592 4.50172 15.2541 4.49288C15.253 4.49066 15.2515 4.48845 15.2504 4.48624C15.2442 4.47592 15.2376 4.46634 15.2303 4.45676C15.2292 4.45492 15.2277 4.45344 15.2263 4.45197C15.22 4.44423 15.2134 4.43649 15.2068 4.42912C15.2046 4.42691 15.2024 4.42433 15.2002 4.42212C15.1918 4.41364 15.183 4.40517 15.1739 4.39743L10.6568 0.586233C10.6447 0.575914 10.6315 0.566701 10.6183 0.558226C10.6158 0.556752 10.6132 0.554909 10.6106 0.553435C10.5978 0.545696 10.5843 0.538694 10.5707 0.532429C10.5681 0.531324 10.5656 0.530218 10.563 0.529113C10.5498 0.523585 10.5363 0.518794 10.5227 0.514741C10.5213 0.514372 10.5202 0.514004 10.5187 0.513267C10.504 0.509213 10.4894 0.506265 10.4744 0.504054C10.4711 0.503685 10.4682 0.503317 10.4649 0.502948C10.4502 0.501106 10.4359 0.5 10.4216 0.5H4.38921C2.99621 0.5 1.86292 1.64019 1.86292 3.04203V7.46422C1.86292 7.66764 2.02701 7.83274 2.2292 7.83274C2.4314 7.83274 2.59549 7.66764 2.59549 7.46422V3.04203C2.59549 2.04666 3.40023 1.23703 4.38921 1.23703H10.055V3.71973C10.055 4.45234 10.6473 5.04823 11.3755 5.04823H14.5721V15.9445L13.5421 14.9083C13.3988 14.7645 13.167 14.7645 13.0241 14.9083C12.8809 15.0523 12.8809 15.2856 13.0241 15.4293L14.5882 17.0029C14.6596 17.0748 14.7534 17.1109 14.8471 17.1109C14.9383 17.1109 15.0299 17.0766 15.101 17.0081L16.7284 15.4345C16.8742 15.2934 16.8789 15.0601 16.7387 14.9134ZM10.7879 3.71973V1.65862L13.9318 4.3112H11.3758C11.0513 4.3112 10.7879 4.04587 10.7879 3.71973Z" fill="#46D0DB"/>
<path d="M8.96713 13.0105V9.74653C8.96713 9.22397 8.5448 8.79907 8.0254 8.79907H0.94173C0.422332 8.79907 0 9.22434 0 9.74653V13.0105C0 13.533 0.422332 13.9579 0.94173 13.9579H8.0254C8.5448 13.9579 8.96713 13.533 8.96713 13.0105ZM0.732579 13.0105V9.74653C0.732579 9.63045 0.826349 9.53611 0.94173 9.53611H8.0254C8.14078 9.53611 8.23455 9.63045 8.23455 9.74653V13.0105C8.23455 13.1266 8.14078 13.2209 8.0254 13.2209H0.94173C0.826349 13.2209 0.732579 13.1266 0.732579 13.0105Z" fill="#46D0DB"/>
<path d="M3.03726 11.3573L3.60684 10.4784C3.62296 10.4493 3.63285 10.4231 3.63285 10.3937C3.63285 10.3122 3.56472 10.2407 3.47754 10.2407H3.26729C3.19294 10.2407 3.1347 10.2732 3.09587 10.3384L2.7142 10.9733L2.31604 10.3384C2.27392 10.2732 2.21568 10.2407 2.14132 10.2407H1.93034C1.8428 10.2407 1.77503 10.3155 1.77503 10.397C1.77503 10.4265 1.78456 10.4523 1.80104 10.4817L2.36402 11.3577L1.76551 12.2819C1.74939 12.311 1.7395 12.3372 1.7395 12.3667C1.7395 12.4481 1.80763 12.5196 1.89481 12.5196H2.10506C2.17942 12.5196 2.23766 12.4872 2.27978 12.422L2.69735 11.7546L3.12114 12.422C3.16327 12.4872 3.22151 12.5196 3.29586 12.5196H3.50611C3.59329 12.5196 3.66142 12.4481 3.66142 12.3667C3.66142 12.3376 3.6519 12.3114 3.63541 12.2819L3.03726 11.3573Z" fill="#46D0DB"/>
<path d="M5.36063 12.0309H4.58703V10.3899C4.58703 10.3084 4.5189 10.2402 4.43831 10.2402H4.21817C4.13722 10.2402 4.06946 10.3088 4.06946 10.3899V12.3695C4.06946 12.451 4.13759 12.5191 4.21817 12.5191H5.36063C5.44158 12.5191 5.50934 12.4506 5.50934 12.3695V12.1808C5.50934 12.0994 5.44158 12.0309 5.36063 12.0309Z" fill="#46D0DB"/>
<path d="M6.25366 10.8588C6.25366 10.7546 6.33791 10.6897 6.48003 10.6897C6.56757 10.6897 6.65475 10.7092 6.7357 10.7516C6.76463 10.7678 6.79394 10.7778 6.82324 10.7778C6.87818 10.7778 6.92031 10.7516 6.95254 10.6996L7.03679 10.5563C7.04961 10.5334 7.0562 10.5073 7.0562 10.4782C7.0562 10.4196 7.03679 10.3772 6.99466 10.351C6.83936 10.2501 6.65182 10.2014 6.43497 10.2014C6.21483 10.2014 6.03682 10.2666 5.90422 10.3934C5.77162 10.5206 5.70349 10.6768 5.70349 10.8588C5.70349 11.1323 5.85221 11.3376 6.03682 11.4448C6.3086 11.6044 6.64852 11.7086 6.64852 11.894C6.64852 12.0016 6.56757 12.0698 6.43497 12.0698C6.3152 12.0698 6.1793 12.0178 6.02729 11.9169C5.99836 11.894 5.96246 11.8844 5.92693 11.8844C5.87528 11.8844 5.83646 11.9073 5.80715 11.9526L5.71338 12.0893C5.69727 12.1122 5.68738 12.1446 5.68738 12.1837C5.68738 12.2327 5.70349 12.2714 5.73609 12.2975C5.95953 12.47 6.1859 12.5581 6.42215 12.5581C6.64559 12.5581 6.82983 12.4962 6.97891 12.369C7.1247 12.2419 7.19905 12.0827 7.19905 11.887C7.19869 11.1452 6.25366 11.2366 6.25366 10.8588Z" fill="#46D0DB"/>
</svg>
