<svg xmlns="http://www.w3.org/2000/svg" width="17" height="21.9" viewBox="0 0 17 21.9">
  <defs>
    <style>
      .a {
        fill: #31456a;
      }
    </style>
  </defs>
  <title>Закладка</title>
  <path class="a" d="M2,2.1V19.3a.5.5,0,0,0,.2.4l.5.2H3l3.4-2.5a3,3,0,0,1,4,0l3.4,2.5h.3l.5-.2a.8.8,0,0,0,.2-.4V2.1ZM14.3,21.9h-.1a3,3,0,0,1-1.5-.5L9.4,18.8a1.4,1.4,0,0,0-1.7,0L4.2,21.4a2.4,2.4,0,0,1-1.4.5,2.9,2.9,0,0,1-2-.7A2.7,2.7,0,0,1,0,19.3V0H17V19.2a2.3,2.3,0,0,1-.9,1.9A2.3,2.3,0,0,1,14.3,21.9Z"/>
</svg>
