<svg width="18" height="25" viewBox="0 0 18 25" xmlns="http://www.w3.org/2000/svg">
<path d="M15.9582 22.9994L15.9572 22.9994C15.8778 22.9952 15.7928 22.968 15.7085 22.9057C15.7079 22.9053 15.7074 22.9049 15.7069 22.9045L11.594 19.8218L11.5919 19.8202C10.0499 18.6299 7.89896 18.6296 6.35709 19.8204L6.35528 19.8218L2.24048 22.9054C2.24 22.9058 2.23952 22.9062 2.23904 22.9065C2.15726 22.9669 2.07237 22.9947 1.992 22.9989L1.99106 22.9989C1.86915 23.0054 1.73608 22.9584 1.63918 22.8665L1.63771 22.8651C1.55 22.7821 1.5 22.6738 1.5 22.5346V2H16.4488V22.5346C16.4488 22.6727 16.399 22.7822 16.3101 22.867C16.2132 22.9589 16.0801 23.0059 15.9582 22.9994Z" stroke-width="3"/>
</svg>
