<svg width="16" height="17" viewBox="0 0 16 17" fill="none" xmlns="http://www.w3.org/2000/svg">
<path d="M10.7729 5.22032C9.48792 5.22032 8.27009 5.02495 7.3447 4.66989C5.84232 4.09374 5.61792 3.28864 5.61792 2.86016C5.61792 2.43168 5.84232 1.62699 7.3447 1.05043C8.27009 0.695366 9.48792 0.5 10.7729 0.5C12.058 0.5 13.2758 0.695366 14.2012 1.05043C15.7036 1.62699 15.928 2.43168 15.928 2.86016C15.928 3.28864 15.7036 4.09333 14.2012 4.66989C13.2758 5.02495 12.0584 5.22032 10.7729 5.22032ZM10.7729 1.7423C9.65259 1.7423 8.56501 1.91278 7.78935 2.2106C7.08711 2.47979 6.86022 2.76476 6.86022 2.86016C6.86022 2.95597 7.08752 3.24094 7.78935 3.51013C8.56501 3.80754 9.65259 3.97843 10.7729 3.97843C11.8933 3.97843 12.9809 3.80795 13.7565 3.51013C14.4588 3.24094 14.6861 2.95597 14.6861 2.86016C14.6861 2.76476 14.4588 2.47979 13.7565 2.2106C12.9809 1.91278 11.8933 1.7423 10.7729 1.7423ZM15.5318 15.5071C15.845 15.3673 15.9856 14.9998 15.8458 14.6867C15.706 14.3735 15.3385 14.2329 15.0254 14.3727C13.8619 14.892 12.2371 15.1774 10.5664 15.1562C10.2242 15.1516 9.9417 15.4262 9.93755 15.7693C9.93299 16.1123 10.2076 16.3935 10.5506 16.3981C10.617 16.3989 10.6838 16.3993 10.7497 16.3993C12.5466 16.3997 14.2381 16.0849 15.5318 15.5071ZM12.1347 13.5709C13.4147 13.4502 14.5894 13.164 15.5314 12.7434C15.8446 12.6036 15.9852 12.2361 15.8454 11.9229C15.7056 11.6097 15.3381 11.4691 15.025 11.6089C14.2049 11.9752 13.165 12.2257 12.0177 12.334C11.6764 12.3663 11.4254 12.6691 11.4578 13.0109C11.488 13.3324 11.7585 13.5738 12.0754 13.5738C12.0953 13.5738 12.1152 13.573 12.1347 13.5709ZM12.3334 10.7561C13.535 10.6255 14.6409 10.3463 15.5318 9.94851C15.845 9.80873 15.9856 9.44122 15.8458 9.12806C15.706 8.81489 15.3385 8.67428 15.0254 8.81406C14.2514 9.15958 13.2741 9.40389 12.1994 9.52086C11.8584 9.55778 11.6121 9.86431 11.649 10.2053C11.6838 10.5234 11.9526 10.7594 12.2658 10.7594C12.2878 10.7598 12.3106 10.7586 12.3334 10.7561ZM11.3275 8.00397C12.9029 7.943 14.3961 7.62983 15.5318 7.12296C15.845 6.98317 15.9856 6.61567 15.8458 6.3025C15.706 5.98934 15.3385 5.84872 15.0254 5.98851C14.0307 6.43233 12.7005 6.70734 11.2794 6.76251C10.9368 6.77578 10.6697 7.06447 10.6829 7.40709C10.6958 7.74141 10.9712 8.00397 11.303 8.00397C11.3109 8.00439 11.3192 8.00397 11.3275 8.00397ZM5.27904 16.3997C2.36804 16.3997 0 14.0313 0 11.1207C0 8.20971 2.36804 5.84167 5.27904 5.84167C8.19004 5.84167 10.5581 8.20971 10.5581 11.1207C10.5585 14.0313 8.19004 16.3997 5.27904 16.3997ZM5.27904 7.08355C3.05286 7.08355 1.24188 8.89453 1.24188 11.1207C1.24188 13.3465 3.05286 15.1574 5.27904 15.1574C7.50522 15.1574 9.31619 13.3465 9.31619 11.1207C9.31619 8.89453 7.50522 7.08355 5.27904 7.08355Z" fill="#46D0DB"/>
<path d="M4.10406 12.1471V11.7431H3.82117C3.65276 11.7431 3.49805 11.5883 3.49805 11.4199V11.2582C3.49805 11.0898 3.65276 10.935 3.82117 10.935H4.10406V9.28542C4.10406 9.10374 4.2455 8.9623 4.42718 8.9623C4.90502 8.95566 5.27542 8.94861 5.54504 8.94861C6.81761 8.94861 7.45058 9.42686 7.45058 10.3759C7.45058 11.2175 6.79065 11.7426 5.70681 11.7426H5.18168V12.1466H5.89554C6.06394 12.1466 6.21866 12.3014 6.21866 12.4698V12.6315C6.21866 12.7999 6.06394 12.9547 5.89554 12.9547H5.18168V13.352C5.18168 13.5337 5.02696 13.6751 4.85856 13.6751H4.42759C4.25919 13.6751 4.10447 13.5337 4.10447 13.352V12.9547H3.82158C3.65318 12.9547 3.49846 12.7999 3.49846 12.6315V12.4698C3.49846 12.3014 3.65318 12.1466 3.82158 12.1466L4.10406 12.1471ZM5.18127 10.935H5.67279C6.09712 10.935 6.30576 10.7803 6.30576 10.4705C6.30576 10.0868 6.0768 9.95862 5.65247 9.95862C5.63214 9.95862 5.47743 9.96526 5.18127 9.97231V10.935Z" fill="#46D0DB"/>
</svg>
