<svg width="18" height="19" viewBox="0 0 18 19" fill="none" xmlns="http://www.w3.org/2000/svg">
<path d="M9.13169 7.06759C9.31367 7.06759 9.46686 7.21519 9.46686 7.39054V11.6603C9.46686 11.8361 9.31367 11.9833 9.13169 11.9833H8.75261C8.60674 11.9833 8.48282 11.9203 8.38086 11.7868L6.26008 9.03395V11.6603C6.26008 11.8361 6.10689 11.9833 5.92491 11.9833H5.50242C5.32044 11.9833 5.16725 11.8357 5.16725 11.6603V7.39054C5.16725 7.21519 5.32044 7.06759 5.50242 7.06759H5.88149C6.02737 7.06759 6.15129 7.13058 6.25325 7.26408L8.37403 10.031V7.39054C8.37403 7.21519 8.52722 7.06759 8.70919 7.06759H9.13169ZM9.7586 8.6687C9.7586 8.26865 9.90448 7.95229 10.1884 7.71348C10.4728 7.48173 10.8441 7.36233 11.2964 7.36233C11.7486 7.36233 12.1199 7.48173 12.4043 7.71348C12.6888 7.95229 12.8341 8.26818 12.8341 8.6687C12.8341 9.06921 12.6883 9.38511 12.4043 9.62391C12.1199 9.86977 11.7486 9.98917 11.2964 9.98917C10.8441 9.98917 10.4728 9.86977 10.1884 9.62391C9.90399 9.38464 9.7586 9.06874 9.7586 8.6687ZM12.5424 10.9157C12.5424 11.091 12.3892 11.2387 12.2072 11.2387H10.385C10.2031 11.2387 10.0499 11.091 10.0499 10.9157V10.5787C10.0499 10.4033 10.2031 10.2557 10.385 10.2557H12.2072C12.3892 10.2557 12.5424 10.4033 12.5424 10.5787V10.9157ZM11.2964 9.14583C11.6169 9.14583 11.814 8.97002 11.814 8.66823C11.814 8.38712 11.6101 8.20472 11.2964 8.20472C10.9832 8.20472 10.7787 8.38712 10.7787 8.66823C10.7787 8.97049 10.9973 9.14583 11.2964 9.14583Z" fill="#46D0DB"/>
<path d="M9.00049 18.5508C8.50091 18.5508 8.00182 18.3693 7.6125 18.0064L6.68115 17.1377C6.56211 17.0267 6.40014 16.976 6.23621 16.9985L4.95262 17.1734C4.85651 17.1866 4.76089 17.1927 4.66673 17.1927C3.71002 17.1927 2.87722 16.5364 2.70744 15.6005L2.48351 14.3698C2.45472 14.2123 2.35471 14.0793 2.20835 14.0046L1.06283 13.4184C0.106602 12.929 -0.270034 11.8116 0.205152 10.8738L0.774498 9.75125C0.84719 9.60741 0.84719 9.44288 0.774498 9.29903L0.205152 8.17647C-0.270034 7.23912 0.106602 6.12126 1.06283 5.63191L2.20786 5.04618C2.35422 4.97144 2.45424 4.83793 2.48302 4.68046L2.70695 3.45025C2.89381 2.42217 3.88077 1.73115 4.95262 1.87735L6.23621 2.05222C6.40014 2.07478 6.56211 2.02354 6.68115 1.91307L7.6125 1.04436C8.39065 0.318548 9.61033 0.318548 10.3885 1.04436L11.3198 1.91307C11.4389 2.02401 11.6008 2.07478 11.7648 2.05222L13.0479 1.87735C14.1202 1.73115 15.1067 2.42217 15.2935 3.45025L15.5175 4.68093C15.5462 4.8384 15.6463 4.97144 15.7926 5.04665L16.9372 5.63238C17.8934 6.12173 18.27 7.23912 17.7948 8.17694L17.2255 9.2995C17.1528 9.44335 17.1528 9.60788 17.2255 9.75172L17.7948 10.8743C18.27 11.8121 17.8934 12.9295 16.9372 13.4188L15.7926 14.0046C15.6463 14.0793 15.5458 14.2128 15.5175 14.3698L15.294 15.6C15.1072 16.6281 14.1207 17.3191 13.0484 17.1729L11.7653 16.9981C11.6013 16.9755 11.4394 17.0267 11.3203 17.1372L10.389 18.0059C9.99916 18.3693 9.50007 18.5508 9.00049 18.5508ZM6.31525 15.5826C6.82946 15.5826 7.32172 15.773 7.69836 16.1242L8.62971 16.9929C8.83754 17.1866 9.16295 17.1866 9.37029 16.9929L10.3016 16.1242C10.7476 15.7086 11.355 15.5182 11.9692 15.6019L13.2523 15.7773C13.5382 15.8158 13.8016 15.6315 13.8519 15.357L14.0758 14.1263C14.1831 13.5378 14.5583 13.039 15.1062 12.7588L16.2512 12.1731C16.5069 12.0424 16.6074 11.7435 16.4805 11.4929L15.9112 10.3704C15.6389 9.83352 15.6389 9.21771 15.9112 8.6804L16.48 7.55784C16.6074 7.30682 16.5069 7.00831 16.2512 6.87716L15.1067 6.29143C14.5588 6.01126 14.1831 5.51298 14.0763 4.92396L13.8524 3.69328C13.8026 3.41875 13.5392 3.23401 13.2528 3.27303L11.9697 3.4479C11.3554 3.53157 10.7476 3.34119 10.3021 2.92563L9.37078 2.05692C9.16295 1.86277 8.83754 1.86277 8.63019 2.05692L7.69885 2.92563C7.25342 3.34119 6.64553 3.53157 6.03131 3.4479L4.74772 3.27303C4.46134 3.23401 4.19838 3.41875 4.14812 3.69328L3.92419 4.92396C3.81735 5.51251 3.44169 6.01126 2.89381 6.29096L1.74878 6.87669C1.49313 7.00737 1.39263 7.30635 1.51948 7.5569L2.08882 8.67946C2.36105 9.2163 2.36105 9.83211 2.08882 10.3694L1.51948 11.492C1.39214 11.743 1.49313 12.0415 1.74878 12.1722L2.89381 12.7579C3.44169 13.0381 3.81735 13.5364 3.92419 14.1249L4.14812 15.3556C4.19789 15.6301 4.46134 15.8153 4.74772 15.7758L6.03082 15.601C6.12595 15.5892 6.22109 15.5826 6.31525 15.5826Z" fill="#46D0DB"/>
</svg>
