<svg width="23" height="22" viewBox="0 0 23 22" fill="none" xmlns="http://www.w3.org/2000/svg">
<path d="M8 15V18C8 19.6569 9.34315 21 11 21H19C20.6569 21 22 19.6569 22 18V4C22 2.34315 20.6569 1 19 1H11C9.34315 1 8 2.34315 8 4V6.5" stroke="#31456A" stroke-width="2" stroke-linecap="round" stroke-linejoin="round"/>
<path fill-rule="evenodd" clip-rule="evenodd" d="M0.231232 11.5942C-0.0770772 11.266 -0.0770772 10.7339 0.231232 10.4058L4.13893 6.24613C4.44724 5.91796 4.9471 5.91796 5.25541 6.24613C5.56372 6.57431 5.56372 7.1064 5.25541 7.43458L2.69543 10.1596H11.7105C12.1465 10.1596 12.5 10.5359 12.5 11C12.5 11.4641 12.1465 11.8403 11.7105 11.8403H2.69543L5.25541 14.5654C5.56372 14.8936 5.56372 15.4257 5.25541 15.7539C4.9471 16.082 4.44724 16.082 4.13893 15.7539L0.231232 11.5942Z" fill="#31456A"/>
</svg>
