<svg xmlns="http://www.w3.org/2000/svg" width="24" height="23" viewBox="0 0 24 23">
  <defs>
    <style>
      .a {
        fill: #31456a;
        fill-rule: evenodd;
      }
    </style>
  </defs>
  <title>Поиск</title>
  <path class="a" d="M2.7,10.2a7.9,7.9,0,0,1,8.1-7.7,8,8,0,0,1,8.1,7.7,7.3,7.3,0,0,1-2.4,5.4,8.1,8.1,0,0,1-5.6,2.3A7.9,7.9,0,0,1,2.7,10.2ZM23.6,20.8l-4.5-4.5a9.7,9.7,0,0,0,2.2-6.1A10.4,10.4,0,0,0,10.7,0,10.4,10.4,0,0,0,0,10.2a10.6,10.6,0,0,0,17,8l4.6,4.4a1.4,1.4,0,0,0,1.9,0A1.1,1.1,0,0,0,23.6,20.8Z"/>
</svg>
