<svg width="22" height="17" viewBox="0 0 22 17" fill="none" xmlns="http://www.w3.org/2000/svg">
<path d="M5.20982 12.8032C5.39558 12.5988 5.691 12.6058 5.86975 12.8181C6.0485 13.0305 6.04244 13.3683 5.85668 13.5726L3.7831 15.8511C3.69256 15.9504 3.57588 16 3.45967 16C3.34019 16 3.22071 15.9477 3.12971 15.8437L1.13686 13.5652C0.954379 13.3571 0.954379 13.0193 1.13686 12.8107C1.31888 12.6026 1.6143 12.6026 1.79679 12.8107L3.10917 14.3112V1.46671C3.10917 1.20895 3.31812 1 3.57588 1C3.83363 1 4.04259 1.20895 4.04259 1.46671V14.086L5.20982 12.8032Z" fill="#31456A" stroke="#31456A" stroke-width="0.6"/>
<rect x="10" y="4" width="11" height="1" rx="0.5" fill="#31456A" stroke="#31456A" stroke-width="0.6"/>
<rect x="10" y="8" width="8" height="1" rx="0.5" fill="#31456A" stroke="#31456A" stroke-width="0.6"/>
<rect x="10" y="12" width="6" height="1" rx="0.5" fill="#31456A" stroke="#31456A" stroke-width="0.6"/>
</svg>
