<svg width="16" height="15" viewBox="0 0 16 15" fill="none" xmlns="http://www.w3.org/2000/svg">
<path d="M7.94496 5.45752C8.09753 5.45752 8.22597 5.58018 8.22597 5.72588V9.27393C8.22597 9.42002 8.09753 9.54229 7.94496 9.54229H7.62714C7.50483 9.54229 7.40094 9.48995 7.31545 9.37901L5.53735 7.09151V9.27393C5.53735 9.42002 5.40891 9.54229 5.25633 9.54229H4.90211C4.74953 9.54229 4.62109 9.41963 4.62109 9.27393V5.72588C4.62109 5.58018 4.74953 5.45752 4.90211 5.45752H5.21993C5.34223 5.45752 5.44613 5.50986 5.53162 5.6208L7.30972 7.92002V5.72588C7.30972 5.58018 7.43816 5.45752 7.59073 5.45752H7.94496ZM8.47058 6.78799C8.47058 6.45557 8.59288 6.19268 8.83094 5.99424C9.06942 5.80166 9.38069 5.70244 9.75988 5.70244C10.1391 5.70244 10.4503 5.80166 10.6888 5.99424C10.9273 6.19268 11.0492 6.45518 11.0492 6.78799C11.0492 7.1208 10.9269 7.3833 10.6888 7.58174C10.4503 7.78604 10.1391 7.88526 9.75988 7.88526C9.38069 7.88526 9.06942 7.78604 8.83094 7.58174C8.59247 7.38291 8.47058 7.12041 8.47058 6.78799ZM10.8046 8.65518C10.8046 8.80088 10.6761 8.92354 10.5236 8.92354H8.99579C8.84322 8.92354 8.71478 8.80088 8.71478 8.65518V8.3751C8.71478 8.2294 8.84322 8.10674 8.99579 8.10674H10.5236C10.6761 8.10674 10.8046 8.2294 10.8046 8.3751V8.65518ZM9.75988 7.18447C10.0286 7.18447 10.1939 7.03838 10.1939 6.7876C10.1939 6.55401 10.0229 6.40244 9.75988 6.40244C9.49727 6.40244 9.32588 6.55401 9.32588 6.7876C9.32588 7.03877 9.50913 7.18447 9.75988 7.18447Z" fill="white"/>
<path d="M7.8333 14.9996C7.41445 14.9996 6.996 14.8488 6.66958 14.5472L5.88872 13.8254C5.78892 13.7332 5.65312 13.691 5.51568 13.7097L4.43949 13.8551C4.35891 13.866 4.27874 13.8711 4.19979 13.8711C3.39766 13.8711 2.69943 13.3258 2.55708 12.548L2.36933 11.5254C2.3452 11.3945 2.26135 11.284 2.13864 11.2219L1.17821 10.7347C0.376487 10.3281 0.0607074 9.39959 0.459113 8.6203L0.936464 7.68749C0.997411 7.56796 0.997411 7.43124 0.936464 7.31171L0.459113 6.3789C0.0607074 5.59999 0.376487 4.67109 1.17821 4.26445L2.13823 3.77773C2.26094 3.71562 2.34479 3.60468 2.36893 3.47382L2.55668 2.45156C2.71334 1.59726 3.54083 1.02305 4.43949 1.14453L5.51568 1.28984C5.65312 1.30859 5.78892 1.26601 5.88872 1.17422L6.66958 0.452343C7.322 -0.150781 8.34461 -0.150781 8.99703 0.452343L9.77789 1.17422C9.87769 1.2664 10.0135 1.30859 10.1509 1.28984L11.2267 1.14453C12.1258 1.02305 12.9529 1.59726 13.1095 2.45156L13.2973 3.47421C13.3214 3.60507 13.4053 3.71562 13.528 3.77812L14.4876 4.26484C15.2893 4.67148 15.6051 5.59999 15.2067 6.37929L14.7293 7.3121C14.6684 7.43163 14.6684 7.56835 14.7293 7.68788L15.2067 8.62069C15.6051 9.39998 15.2893 10.3285 14.4876 10.7351L13.528 11.2219C13.4053 11.284 13.321 11.3949 13.2973 11.5254L13.1099 12.5476C12.9533 13.4019 12.1262 13.9761 11.2271 13.8547L10.1513 13.7094C10.0139 13.6906 9.8781 13.7332 9.7783 13.825L8.99744 14.5469C8.67061 14.8488 8.25216 14.9996 7.8333 14.9996ZM5.58194 12.5332C6.01307 12.5332 6.42579 12.6914 6.74157 12.9832L7.52243 13.7051C7.69668 13.866 7.96952 13.866 8.14336 13.7051L8.92422 12.9832C9.29808 12.6379 9.80734 12.4797 10.3223 12.5492L11.3981 12.6949C11.6378 12.7269 11.8587 12.5738 11.9008 12.3457L12.0886 11.323C12.1785 10.834 12.4931 10.4195 12.9525 10.1867L13.9125 9.69998C14.1268 9.59139 14.2111 9.34295 14.1047 9.13475L13.6274 8.20194C13.3991 7.75585 13.3991 7.24413 13.6274 6.79764L14.1043 5.86483C14.2111 5.65624 14.1268 5.40819 13.9125 5.29921L12.9529 4.81249C12.4935 4.57968 12.1785 4.16562 12.089 3.67617L11.9012 2.65351C11.8595 2.42539 11.6386 2.27187 11.3985 2.30429L10.3227 2.44961C9.80775 2.51914 9.29808 2.36093 8.92463 2.01562L8.14377 1.29375C7.96952 1.13242 7.69669 1.13242 7.52284 1.29375L6.74198 2.01562C6.36853 2.36093 5.85886 2.51914 5.34388 2.44961L4.26769 2.30429C4.02759 2.27187 3.80711 2.42539 3.76498 2.65351L3.57723 3.67617C3.48765 4.16523 3.17269 4.57968 2.71334 4.8121L1.75332 5.29882C1.53898 5.40741 1.45472 5.65585 1.56107 5.86405L2.03842 6.79686C2.26667 7.24296 2.26667 7.75467 2.03842 8.20116L1.56107 9.13397C1.45431 9.34256 1.53898 9.59061 1.75332 9.6992L2.71334 10.1859C3.17269 10.4187 3.48765 10.8328 3.57723 11.3219L3.76498 12.3445C3.8067 12.5726 4.02759 12.7265 4.26769 12.6937L5.34347 12.5484C5.42323 12.5386 5.503 12.5332 5.58194 12.5332Z" fill="white"/>
</svg>
